<svg version="1.2" xmlns="http://www.w3.org/2000/svg" viewBox="0 0 1920 292" width="1920" height="292">
	<title>Nouveau projet</title>
	<style>
		.s0 { fill: #ffffff } 
	</style>
	<path id="&lt;Path&gt;" class="s0" d="m1251.7-159.3c15 0 29.3 3.3 42.2 9.2-6.8-20.8-10.6-43.1-10.6-66.2 0-117.9 95.6-213.5 213.5-213.5 44.2 0 85.2 13.5 119.3 36.4 31.7-38.1 79.5-62.4 133-62.4 70.8 0 131.6 42.6 158.3 103.5 24.6-13.9 52.9-21.9 83.2-21.9 93.4 0 169.1 75.7 169.1 169.2 0 9.3-0.8 18.5-2.2 27.5 16-8.1 34.1-12.6 53.2-12.6 65.9 0 119.3 53.4 119.3 119.3 0 65.8-53.4 119.2-119.3 119.2-20.3 0-39.3-5-56.1-14-20.6 91.6-102.4 160-200.2 160-45.5 0-87.6-14.9-121.7-40-36.2 55.7-98.9 92.4-170.2 92.4-98.7 0-180.8-70.3-199.2-163.6-18 16.2-41.9 26.1-68 26.1-47.4 0-87.1-32.4-98.4-76.2-13.6 6.8-29 10.7-45.2 10.7-56.1 0-101.6-45.5-101.6-101.6 0-56 45.5-101.5 101.6-101.5z"/>
	<path id="&lt;Path&gt; copy" class="s0" d="m483.7-165.9c14.8 0 28.8 3.3 41.4 9.1-6.6-20.5-10.3-42.3-10.3-65 0-115.8 93.9-209.6 209.6-209.6 43.4 0 83.7 13.2 117.1 35.7 31.1-37.4 78.1-61.3 130.6-61.3 69.5 0 129.2 41.8 155.5 101.6 24.1-13.6 51.9-21.4 81.6-21.4 91.8 0 166.1 74.3 166.1 166 0 9.2-0.8 18.2-2.2 27 15.7-7.8 33.5-12.3 52.3-12.3 64.7 0 117.1 52.4 117.1 117.1 0 64.7-52.4 117.1-117.1 117.1-19.9 0-38.7-5-55.1-13.7-20.3 89.9-100.6 157-196.6 157-44.7 0-86-14.6-119.5-39.2-35.5 54.6-97.1 90.7-167.1 90.7-96.9 0-177.6-69.1-195.6-160.7-17.7 16-41.1 25.7-66.8 25.7-46.5 0-85.5-31.8-96.5-74.8-13.4 6.7-28.5 10.4-44.5 10.4-55.1 0-99.7-44.6-99.7-99.7 0-55 44.6-99.7 99.7-99.7z"/>
	<path id="&lt;Path&gt; copy 2" class="s0" d="m-204.3-127.9c14.8 0 28.8 3.3 41.4 9.1-6.6-20.5-10.3-42.3-10.3-65 0-115.8 93.9-209.6 209.6-209.6 43.4 0 83.7 13.2 117.1 35.7 31.1-37.4 78.1-61.3 130.6-61.3 69.5 0 129.2 41.8 155.5 101.6 24.1-13.6 51.9-21.4 81.6-21.4 91.8 0 166.1 74.3 166.1 166 0 9.2-0.8 18.2-2.2 27 15.7-7.8 33.5-12.3 52.3-12.3 64.7 0 117.1 52.4 117.1 117.1 0 64.7-52.4 117.1-117.1 117.1-19.9 0-38.7-5-55.1-13.7-20.3 89.9-100.6 157-196.6 157-44.7 0-86-14.6-119.5-39.2-35.5 54.6-97.1 90.7-167.1 90.7-96.9 0-177.6-69.1-195.6-160.7-17.7 16-41.1 25.7-66.8 25.7-46.5 0-85.5-31.8-96.5-74.8-13.4 6.7-28.5 10.4-44.5 10.4-55.1 0-99.7-44.6-99.7-99.7 0-55 44.6-99.7 99.7-99.7z"/>
</svg>